<svg width="36" height="36" viewBox="0 0 36 36" fill="none" xmlns="http://www.w3.org/2000/svg">
<path d="M7.08936 4.68063C8.27942 4.68076 9.33926 5.15864 10.0503 5.98239C10.7614 5.15841 11.8219 4.68063 13.0122 4.68063L13.2036 4.68552C14.1589 4.73382 15.0651 5.13497 15.7446 5.81442C16.4694 6.53914 16.8772 7.52194 16.8784 8.54684V8.54782C16.8782 10.7115 15.2808 12.6371 13.7056 14.0166C12.1221 15.4033 10.5069 16.2836 10.3657 16.3584L10.3667 16.3593C10.2695 16.4116 10.1606 16.4384 10.0503 16.4384C9.93994 16.4384 9.83107 16.4116 9.73389 16.3593V16.3584C9.5857 16.2797 7.9745 15.3998 6.39502 14.0166C4.81988 12.6371 3.22239 10.7114 3.22217 8.54782V8.54684C3.2234 7.52194 3.63123 6.53914 4.35596 5.81442C5.08068 5.0897 6.06348 4.68187 7.08838 4.68063H7.08936ZM13.0122 6.01657C11.9306 6.01657 11.0396 6.58827 10.6685 7.49509V7.49606C10.6181 7.61843 10.5323 7.72317 10.4224 7.79684C10.3124 7.87054 10.1827 7.91013 10.0503 7.91013C9.91795 7.91008 9.78816 7.87053 9.67822 7.79684C9.56847 7.72322 9.48341 7.61827 9.43311 7.49606V7.49509C9.06199 6.58987 8.17062 6.01673 7.08936 6.01657C6.41837 6.01744 5.77475 6.2843 5.30029 6.75876C4.82584 7.23322 4.55898 7.87684 4.55811 8.54782C4.55833 10.0504 5.65333 11.5133 6.93408 12.7021C8.13333 13.8152 9.45494 14.648 10.0503 15.0009C10.6451 14.6477 11.967 13.8139 13.1665 12.7002C14.4475 11.5107 15.5423 10.0479 15.5425 8.54782C15.5416 7.87684 15.2748 7.23322 14.8003 6.75876C14.3259 6.28452 13.683 6.01754 13.0122 6.01657Z" fill="white" stroke="white" stroke-width="0.387946"/>
<path d="M26.0933 4.68066C26.3826 4.68069 26.6673 4.75665 26.9185 4.90039C27.1068 5.00827 27.2714 5.15198 27.4038 5.32227L27.5249 5.50098L27.5259 5.50195L32.7046 14.4971H32.7056C32.847 14.7398 32.9216 15.0159 32.9214 15.2969C32.9212 15.5777 32.8453 15.8533 32.7036 16.0957C32.5588 16.347 32.3509 16.5562 32.0991 16.7002C31.8478 16.8438 31.5624 16.9166 31.2729 16.9141V16.915H20.9136V16.9141C20.624 16.9168 20.339 16.8438 20.0874 16.7002C19.8354 16.5563 19.6259 16.3481 19.481 16.0967C19.3393 15.854 19.2642 15.5779 19.2642 15.2969C19.2642 15.086 19.3064 14.8778 19.3872 14.6846L19.481 14.4971L24.6606 5.50195L24.6616 5.50098C24.8082 5.25147 25.017 5.04415 25.2681 4.90039C25.5192 4.75663 25.8039 4.68066 26.0933 4.68066ZM26.0942 6.01465C26.0385 6.01466 25.9836 6.02924 25.9351 6.05664C25.8863 6.0842 25.8447 6.1239 25.8159 6.17188L20.6382 15.1641L20.6372 15.166C20.614 15.2053 20.6021 15.2503 20.6021 15.2959C20.6021 15.3186 20.6049 15.3415 20.6108 15.3633L20.6372 15.4268C20.665 15.4741 20.7056 15.5132 20.7534 15.54C20.8012 15.5668 20.855 15.581 20.9097 15.5801H31.2759C31.3308 15.581 31.3852 15.5669 31.4331 15.54C31.4809 15.5132 31.5206 15.4741 31.5483 15.4268L31.5493 15.4258C31.5727 15.3866 31.5852 15.3415 31.5854 15.2959C31.5857 15.2502 31.5743 15.2045 31.5513 15.165L31.5503 15.1641L26.3726 6.17188L26.3208 6.10645C26.301 6.08716 26.2786 6.07038 26.2544 6.05664C26.2057 6.02908 26.1502 6.01465 26.0942 6.01465Z" fill="white" stroke="white" stroke-width="0.387946"/>
<path d="M15.519 20.7223C15.8217 20.7224 16.1117 20.8433 16.3257 21.0573C16.5397 21.2713 16.6605 21.5613 16.6606 21.8639V30.3942C16.6605 30.6968 16.5397 30.9868 16.3257 31.2008C16.1117 31.4148 15.8217 31.5357 15.519 31.5358H5.09326C4.79063 31.5357 4.50062 31.4148 4.28662 31.2008C4.07262 30.9868 3.95176 30.6968 3.95166 30.3942V21.8639C3.95178 21.5613 4.07262 21.2713 4.28662 21.0573C4.50062 20.8433 4.79063 20.7224 5.09326 20.7223H15.519ZM5.2876 30.1999H15.3247V22.0583H5.2876V30.1999Z" fill="white" stroke="white" stroke-width="0.387946"/>
<path d="M26.6631 19.2728C28.2329 19.3523 29.7222 20.0106 30.8389 21.1273C32.0301 22.3185 32.7004 23.9339 32.7021 25.6185C32.7021 26.8752 32.3291 28.1038 31.6309 29.1487C30.9327 30.1936 29.9403 31.0077 28.7793 31.4886C27.6184 31.9695 26.3408 32.0959 25.1084 31.8509C23.8758 31.6057 22.7431 31.0003 21.8545 30.1116C20.9659 29.223 20.3604 28.0903 20.1152 26.8577C19.8702 25.6253 19.9967 24.3478 20.4775 23.1868C20.9585 22.0259 21.7725 21.0334 22.8174 20.3353C23.8623 19.6371 25.0909 19.264 26.3477 19.264L26.6631 19.2728ZM28.2686 20.9818C27.3516 20.6019 26.3416 20.503 25.3682 20.6966C24.3949 20.8903 23.5006 21.3679 22.7988 22.0696C22.0971 22.7714 21.6195 23.6657 21.4258 24.639C21.2321 25.6125 21.3311 26.6224 21.7109 27.5394C22.0908 28.4563 22.7344 29.2399 23.5596 29.7913C24.3848 30.3427 25.3551 30.637 26.3477 30.637C27.6781 30.6355 28.9537 30.1061 29.8945 29.1653C30.8353 28.2245 31.3646 26.949 31.3662 25.6185C31.3662 24.626 31.0719 23.6556 30.5205 22.8304C29.9691 22.0052 29.1854 21.3616 28.2686 20.9818Z" fill="white" stroke="white" stroke-width="0.387946"/>
</svg>
