<svg width="36" height="35" viewBox="0 0 36 35" fill="none" xmlns="http://www.w3.org/2000/svg">
<path d="M5.94068 9.80181H10.4293C10.669 10.7381 11.2135 11.5679 11.9769 12.1605C12.7404 12.7531 13.6794 13.0748 14.6458 13.0748C15.6123 13.0748 16.5512 12.7531 17.3147 12.1605C18.0781 11.5679 18.6226 10.7381 18.8624 9.80181H29.8798C30.1684 9.80181 30.4451 9.68717 30.6492 9.4831C30.8533 9.27903 30.9679 9.00226 30.9679 8.71367C30.9679 8.42508 30.8533 8.1483 30.6492 7.94424C30.4451 7.74017 30.1684 7.62553 29.8798 7.62553H18.8624C18.6226 6.68927 18.0781 5.85943 17.3147 5.26683C16.5512 4.67423 15.6123 4.35257 14.6458 4.35257C13.6794 4.35257 12.7404 4.67423 11.9769 5.26683C11.2135 5.85943 10.669 6.68927 10.4293 7.62553H5.94068C5.65209 7.62553 5.37531 7.74017 5.17125 7.94424C4.96718 8.1483 4.85254 8.42508 4.85254 8.71367C4.85254 9.00226 4.96718 9.27903 5.17125 9.4831C5.37531 9.68717 5.65209 9.80181 5.94068 9.80181ZM14.6458 6.53739C15.0762 6.53739 15.497 6.66502 15.8549 6.90416C16.2128 7.14329 16.4917 7.48318 16.6564 7.88084C16.8211 8.27851 16.8642 8.71608 16.7803 9.13824C16.6963 9.5604 16.489 9.94817 16.1847 10.2525C15.8803 10.5569 15.4925 10.7642 15.0704 10.8481C14.6482 10.9321 14.2106 10.889 13.813 10.7243C13.4153 10.5596 13.0754 10.2806 12.8363 9.92275C12.5972 9.56486 12.4695 9.1441 12.4695 8.71367C12.4695 8.13648 12.6988 7.58294 13.1069 7.17481C13.5151 6.76667 14.0686 6.53739 14.6458 6.53739ZM29.8798 16.3307H27.5675C27.3278 15.3944 26.7833 14.5646 26.0198 13.972C25.2564 13.3794 24.3174 13.0577 23.3509 13.0577C22.3845 13.0577 21.4455 13.3794 20.6821 13.972C19.9186 14.5646 19.3741 15.3944 19.1344 16.3307H5.94068C5.65209 16.3307 5.37531 16.4453 5.17125 16.6494C4.96718 16.8534 4.85254 17.1302 4.85254 17.4188C4.85254 17.7074 4.96718 17.9842 5.17125 18.1882C5.37531 18.3923 5.65209 18.5069 5.94068 18.5069H19.1344C19.3741 19.4432 19.9186 20.273 20.6821 20.8656C21.4455 21.4582 22.3845 21.7799 23.3509 21.7799C24.3174 21.7799 25.2564 21.4582 26.0198 20.8656C26.7833 20.273 27.3278 19.4432 27.5675 18.5069H29.8798C30.1684 18.5069 30.4451 18.3923 30.6492 18.1882C30.8533 17.9842 30.9679 17.7074 30.9679 17.4188C30.9679 17.1302 30.8533 16.8534 30.6492 16.6494C30.4451 16.4453 30.1684 16.3307 29.8798 16.3307ZM23.3509 19.5951C22.9205 19.5951 22.4997 19.4674 22.1419 19.2283C21.784 18.9892 21.505 18.6493 21.3403 18.2516C21.1756 17.854 21.1325 17.4164 21.2165 16.9942C21.3004 16.5721 21.5077 16.1843 21.8121 15.8799C22.1164 15.5756 22.5042 15.3683 22.9264 15.2843C23.3485 15.2004 23.7861 15.2435 24.1838 15.4082C24.5814 15.5729 24.9213 15.8518 25.1604 16.2097C25.3996 16.5676 25.5272 16.9884 25.5272 17.4188C25.5272 17.996 25.2979 18.5495 24.8898 18.9577C24.4817 19.3658 23.9281 19.5951 23.3509 19.5951Z" fill="white"/>
<path d="M5.96875 28.8107H10.4805C10.7214 29.7518 11.2687 30.5859 12.0361 31.1815C12.8035 31.7772 13.7473 32.1005 14.7187 32.1005C15.6902 32.1005 16.634 31.7772 17.4014 31.1815C18.1688 30.5859 18.7161 29.7518 18.957 28.8107H30.0312C30.3213 28.8107 30.5995 28.6954 30.8046 28.4903C31.0098 28.2852 31.125 28.007 31.125 27.7169C31.125 27.4268 31.0098 27.1486 30.8046 26.9435C30.5995 26.7384 30.3213 26.6232 30.0312 26.6232H18.957C18.7161 25.6821 18.1688 24.848 17.4014 24.2523C16.634 23.6567 15.6902 23.3333 14.7187 23.3333C13.7473 23.3333 12.8035 23.6567 12.0361 24.2523C11.2687 24.848 10.7214 25.6821 10.4805 26.6232H5.96875C5.67867 26.6232 5.40047 26.7384 5.19535 26.9435C4.99023 27.1486 4.875 27.4268 4.875 27.7169C4.875 28.007 4.99023 28.2852 5.19535 28.4903C5.40047 28.6954 5.67867 28.8107 5.96875 28.8107ZM14.7187 25.5294C15.1514 25.5294 15.5743 25.6577 15.9341 25.8981C16.2938 26.1384 16.5742 26.4801 16.7397 26.8798C16.9053 27.2795 16.9486 27.7193 16.8642 28.1437C16.7798 28.568 16.5715 28.9578 16.2655 29.2637C15.9596 29.5696 15.5698 29.778 15.1455 29.8624C14.7212 29.9468 14.2813 29.9035 13.8816 29.7379C13.4819 29.5723 13.1403 29.292 12.8999 28.9322C12.6595 28.5725 12.5312 28.1496 12.5312 27.7169C12.5312 27.1368 12.7617 26.5804 13.172 26.1701C13.5822 25.7599 14.1386 25.5294 14.7187 25.5294Z" fill="white"/>
</svg>
