<svg width="36" height="35" viewBox="0 0 36 35" fill="none" xmlns="http://www.w3.org/2000/svg">
<path d="M16.8174 5.73114C17.1813 5.73114 17.5362 5.84273 17.835 6.05048C18.0963 6.23222 18.3039 6.47969 18.4365 6.76727L18.4893 6.89325V6.89423L20.9414 13.6423L27.6924 16.0964V16.0974L27.8184 16.1491C28.106 16.2817 28.3543 16.4893 28.5361 16.7507C28.7438 17.0494 28.8545 17.4045 28.8545 17.7682C28.8545 18.132 28.7437 18.4871 28.5361 18.7858C28.3544 19.0472 28.106 19.2548 27.8184 19.3874L27.6924 19.4401L20.9434 21.8932L18.4893 28.6432C18.3626 28.9844 18.1337 29.2792 17.835 29.487C17.5363 29.6946 17.1811 29.8054 16.8174 29.8054C16.4536 29.8053 16.0985 29.6946 15.7998 29.487C15.501 29.2792 15.2731 28.9844 15.1465 28.6432H15.1455L12.6914 21.8932L5.94336 19.4401H5.94238C5.60119 19.3135 5.30741 19.0846 5.09961 18.7858C4.89186 18.4871 4.78027 18.1321 4.78027 17.7682C4.78029 17.4043 4.89183 17.0494 5.09961 16.7507C5.30737 16.4519 5.60127 16.224 5.94238 16.0974L5.94336 16.0964L12.6914 13.6423L15.1455 6.89423L15.1465 6.89325C15.2731 6.55214 15.5011 6.25824 15.7998 6.05048C16.0986 5.84269 16.4535 5.73116 16.8174 5.73114ZM14.2881 14.6843C14.2418 14.8115 14.168 14.9274 14.0723 15.0231C13.9765 15.1189 13.8606 15.1926 13.7334 15.239L6.77832 17.7682L13.7334 20.2975C13.8606 20.3439 13.9765 20.4177 14.0723 20.5134C14.168 20.6091 14.2418 20.725 14.2881 20.8522L16.8174 27.8063L19.3467 20.8522C19.393 20.725 19.4667 20.6091 19.5625 20.5134C19.6583 20.4176 19.7741 20.3439 19.9014 20.2975L26.8555 17.7682L19.9014 15.239C19.7741 15.1926 19.6583 15.1189 19.5625 15.0231C19.4668 14.9274 19.393 14.8115 19.3467 14.6843L16.8174 7.72919L14.2881 14.6843Z" fill="white" stroke="white" stroke-width="0.145085"/>
<path d="M28.0667 0.289734C28.2866 0.289826 28.5013 0.357522 28.6819 0.483093C28.8174 0.57736 28.9285 0.701406 29.0081 0.844421L29.0774 0.992859V0.993835L30.3987 4.63055L34.0364 5.95282H34.0374C34.2436 6.02943 34.4215 6.16767 34.5471 6.34833C34.6728 6.52905 34.7405 6.74441 34.7405 6.96454C34.7404 7.1845 34.6727 7.39918 34.5471 7.57977C34.4215 7.76043 34.2436 7.89866 34.0374 7.97528H34.0364L30.3997 9.29657L29.0774 12.9343V12.9352C29.0008 13.1415 28.8625 13.3194 28.6819 13.445C28.5013 13.5706 28.2866 13.6383 28.0667 13.6384C27.8465 13.6384 27.6312 13.5707 27.4504 13.445C27.2698 13.3194 27.1315 13.1415 27.0549 12.9352V12.9343L25.7327 9.29755L22.0959 7.97528H22.095C21.8887 7.89866 21.7108 7.76041 21.5852 7.57977C21.4596 7.39919 21.3919 7.18448 21.3918 6.96454C21.3918 6.74442 21.4595 6.52904 21.5852 6.34833C21.7108 6.16768 21.8887 6.02944 22.095 5.95282H22.0959L25.7327 4.63055L27.0549 0.993835V0.992859C27.1316 0.786591 27.2698 0.608731 27.4504 0.483093C27.6312 0.357414 27.8465 0.289734 28.0667 0.289734ZM26.7854 5.31708C26.7548 5.40099 26.706 5.47757 26.6428 5.54071C26.5797 5.60385 26.5031 5.65274 26.4192 5.68329L22.8958 6.96356L26.4192 8.24481C26.5031 8.27536 26.5797 8.32427 26.6428 8.38739C26.706 8.45053 26.7548 8.52711 26.7854 8.61102L28.0657 12.1335L29.3469 8.61102C29.3775 8.52711 29.4264 8.45053 29.4895 8.38739C29.5526 8.32425 29.6292 8.27537 29.7131 8.24481L33.2356 6.96356L29.7131 5.68329C29.6292 5.65274 29.5526 5.60385 29.4895 5.54071C29.4264 5.47758 29.3775 5.40097 29.3469 5.31708L28.0657 1.79364L26.7854 5.31708Z" fill="white" stroke="white" stroke-width="0.290171"/>
</svg>
