<svg width="36" height="35" viewBox="0 0 36 35" fill="none" xmlns="http://www.w3.org/2000/svg">
<path d="M31.125 29.5313C31.125 29.8213 31.0098 30.0995 30.8046 30.3046C30.5995 30.5098 30.3213 30.625 30.0312 30.625H5.96875C5.67867 30.625 5.40047 30.5098 5.19535 30.3046C4.99023 30.0995 4.875 29.8213 4.875 29.5313C4.875 29.2412 4.99023 28.963 5.19535 28.7579C5.40047 28.5527 5.67867 28.4375 5.96875 28.4375H30.0312C30.3213 28.4375 30.5995 28.5527 30.8046 28.7579C31.0098 28.963 31.125 29.2412 31.125 29.5313Z" fill="white"/>
<path d="M9.20312 6.13634L9.50588 5.83203H25.6343L25.9371 6.13634C25.8454 7.70402 25.7995 9.52068 25.7995 11.5863H24.8362C24.3591 9.85266 24.0472 8.83828 23.9004 8.54319C23.827 8.32187 23.7444 8.11899 23.6527 7.93456C23.5243 7.80546 23.3591 7.72246 23.1573 7.68558C22.2031 7.50114 21.405 7.40893 20.7628 7.40893C20.1206 7.40893 19.5701 7.45504 19.1114 7.54725C18.9646 11.033 18.8912 16.5014 18.8912 23.9525C18.8912 24.2845 19.0564 24.5519 19.3866 24.7548C19.7353 24.9392 20.0839 25.0591 20.4325 25.1144C20.7811 25.1698 21.2582 25.2251 21.8637 25.2804V26.2487H13.0563V25.2804C14.5242 25.1513 15.4233 24.9208 15.7536 24.5888C15.9187 24.4228 16.0013 24.2107 16.0013 23.9525C16.0563 20.3745 16.0839 17.0271 16.0839 13.9102C16.0839 10.7748 16.0655 8.65385 16.0288 7.54725C15.5701 7.45504 15.0196 7.40893 14.3774 7.40893C13.7352 7.40893 12.9371 7.50114 11.9829 7.68558C11.7811 7.72246 11.616 7.80546 11.4875 7.93456C11.3958 8.11899 11.3132 8.32187 11.2398 8.54319C11.093 8.83828 10.7811 9.85266 10.304 11.5863H9.34074C9.34074 9.52068 9.29487 7.70402 9.20312 6.13634Z" fill="white"/>
</svg>
