<svg width="36" height="35" viewBox="0 0 36 35" fill="none" xmlns="http://www.w3.org/2000/svg">
<path d="M16.8164 5.73242C17.1803 5.73242 17.5352 5.84401 17.834 6.05176C18.0953 6.23351 18.303 6.48097 18.4355 6.76855L18.4883 6.89453V6.89551L20.9404 13.6436L27.6914 16.0977V16.0986L27.8174 16.1504C28.1051 16.283 28.3534 16.4906 28.5352 16.752C28.7428 17.0506 28.8535 17.4058 28.8535 17.7695C28.8535 18.1333 28.7427 18.4884 28.5352 18.7871C28.3534 19.0485 28.105 19.2561 27.8174 19.3887L27.6914 19.4414L20.9424 21.8945L18.4883 28.6445C18.3616 28.9857 18.1328 29.2805 17.834 29.4883C17.5353 29.6959 17.1802 29.8066 16.8164 29.8066C16.4526 29.8066 16.0975 29.6959 15.7988 29.4883C15.5001 29.2805 15.2722 28.9857 15.1455 28.6445H15.1445L12.6904 21.8945L5.94238 19.4414H5.94141C5.60021 19.3148 5.30643 19.0859 5.09863 18.7871C4.89088 18.4883 4.7793 18.1334 4.7793 17.7695C4.77932 17.4056 4.89085 17.0507 5.09863 16.752C5.30639 16.4532 5.6003 16.2253 5.94141 16.0986L5.94238 16.0977L12.6904 13.6436L15.1445 6.89551L15.1455 6.89453C15.2722 6.55342 15.5001 6.25952 15.7988 6.05176C16.0976 5.84397 16.4525 5.73244 16.8164 5.73242ZM14.2871 14.6855C14.2408 14.8128 14.167 14.9287 14.0713 15.0244C13.9755 15.1202 13.8597 15.1939 13.7324 15.2402L6.77734 17.7695L13.7324 20.2988C13.8596 20.3451 13.9755 20.4189 14.0713 20.5146C14.167 20.6104 14.2408 20.7263 14.2871 20.8535L16.8164 27.8076L19.3457 20.8535C19.392 20.7263 19.4658 20.6104 19.5615 20.5146C19.6573 20.4189 19.7731 20.3452 19.9004 20.2988L26.8545 17.7695L19.9004 15.2402C19.7731 15.1939 19.6573 15.1202 19.5615 15.0244C19.4658 14.9287 19.392 14.8128 19.3457 14.6855L16.8164 7.73047L14.2871 14.6855Z" fill="#FFB71C" stroke="#FFB71C" stroke-width="0.145085"/>
<path d="M28.0684 0.288086C28.2883 0.288178 28.503 0.355874 28.6836 0.481445C28.8191 0.575712 28.9302 0.699758 29.0098 0.842773L29.0791 0.991211V0.992188L30.4004 4.62891L34.0381 5.95117H34.0391C34.2454 6.02778 34.4232 6.16602 34.5488 6.34668C34.6745 6.5274 34.7422 6.74276 34.7422 6.96289C34.7421 7.18285 34.6744 7.39754 34.5488 7.57812C34.4232 7.75879 34.2453 7.89702 34.0391 7.97363H34.0381L30.4014 9.29492L29.0791 12.9326V12.9336C29.0025 13.1399 28.8643 13.3177 28.6836 13.4434C28.503 13.5689 28.2883 13.6366 28.0684 13.6367C27.8482 13.6367 27.6329 13.569 27.4521 13.4434C27.2715 13.3177 27.1333 13.1399 27.0566 12.9336V12.9326L25.7344 9.2959L22.0977 7.97363H22.0967C21.8904 7.89701 21.7125 7.75877 21.5869 7.57812C21.4613 7.39754 21.3936 7.18283 21.3936 6.96289C21.3936 6.74277 21.4612 6.52739 21.5869 6.34668C21.7126 6.16603 21.8904 6.02779 22.0967 5.95117H22.0977L25.7344 4.62891L27.0566 0.992188V0.991211C27.1333 0.784943 27.2715 0.607083 27.4521 0.481445C27.6329 0.355766 27.8482 0.288086 28.0684 0.288086ZM26.7871 5.31543C26.7566 5.39934 26.7077 5.47592 26.6445 5.53906C26.5814 5.60221 26.5048 5.65109 26.4209 5.68164L22.8975 6.96191L26.4209 8.24316C26.5048 8.27371 26.5814 8.32262 26.6445 8.38574C26.7077 8.44888 26.7566 8.52547 26.7871 8.60938L28.0674 12.1318L29.3486 8.60938C29.3792 8.52547 29.4281 8.44888 29.4912 8.38574C29.5544 8.3226 29.6309 8.27372 29.7148 8.24316L33.2373 6.96191L29.7148 5.68164C29.6309 5.65109 29.5544 5.60221 29.4912 5.53906C29.4281 5.47593 29.3792 5.39932 29.3486 5.31543L28.0674 1.79199L26.7871 5.31543Z" fill="#FFB71C" stroke="#FFB71C" stroke-width="0.290171"/>
</svg>
