<svg width="36" height="36" viewBox="0 0 36 36" fill="none" xmlns="http://www.w3.org/2000/svg">
<path d="M7.08691 4.68066C8.27698 4.68079 9.33681 5.15867 10.0479 5.98242C10.759 5.15844 11.8194 4.68066 13.0098 4.68066L13.2012 4.68555C14.1564 4.73385 15.0626 5.135 15.7422 5.81445C16.4669 6.53918 16.8747 7.52197 16.876 8.54688V8.54785C16.8758 10.7116 15.2783 12.6371 13.7031 14.0166C12.1197 15.4033 10.5044 16.2836 10.3633 16.3584L10.3643 16.3594C10.2671 16.4116 10.1582 16.4385 10.0479 16.4385C9.9375 16.4384 9.82863 16.4117 9.73145 16.3594V16.3584C9.58326 16.2797 7.97206 15.3998 6.39258 14.0166C4.81744 12.6371 3.21995 10.7115 3.21973 8.54785V8.54688C3.22096 7.52197 3.62879 6.53918 4.35352 5.81445C5.07824 5.08973 6.06103 4.6819 7.08594 4.68066H7.08691ZM13.0098 6.0166C11.9281 6.0166 11.0372 6.5883 10.666 7.49512V7.49609C10.6157 7.61846 10.5298 7.7232 10.4199 7.79688C10.3099 7.87057 10.1802 7.91016 10.0479 7.91016C9.91551 7.91011 9.78572 7.87056 9.67578 7.79688C9.56603 7.72325 9.48097 7.6183 9.43066 7.49609V7.49512C9.05955 6.5899 8.16818 6.01676 7.08691 6.0166C6.41593 6.01748 5.77231 6.28433 5.29785 6.75879C4.82339 7.23325 4.55654 7.87687 4.55566 8.54785C4.55589 10.0504 5.65089 11.5133 6.93164 12.7021C8.13089 13.8153 9.4525 14.648 10.0479 15.001C10.6427 14.6477 11.9646 13.8139 13.1641 12.7002C14.4451 11.5108 15.5398 10.048 15.54 8.54785C15.5392 7.87687 15.2723 7.23325 14.7979 6.75879C14.3235 6.28455 13.6805 6.01757 13.0098 6.0166Z" fill="#FFB71C" stroke="#FFB71C" stroke-width="0.387946"/>
<path d="M26.0879 4.68066C26.3772 4.68069 26.662 4.75665 26.9131 4.90039C27.1015 5.00827 27.266 5.15198 27.3984 5.32227L27.5195 5.50098L27.5205 5.50195L32.6992 14.4971H32.7002C32.8417 14.7398 32.9162 15.0159 32.916 15.2969C32.9158 15.5777 32.8399 15.8533 32.6982 16.0957C32.5535 16.347 32.3456 16.5562 32.0938 16.7002C31.8424 16.8438 31.557 16.9166 31.2676 16.9141V16.915H20.9082V16.9141C20.6186 16.9168 20.3336 16.8438 20.082 16.7002C19.83 16.5563 19.6205 16.3481 19.4756 16.0967C19.3339 15.854 19.2588 15.5779 19.2588 15.2969C19.2588 15.086 19.301 14.8778 19.3818 14.6846L19.4756 14.4971L24.6553 5.50195L24.6562 5.50098C24.8028 5.25147 25.0116 5.04415 25.2627 4.90039C25.5139 4.75663 25.7985 4.68066 26.0879 4.68066ZM26.0889 6.01465C26.0331 6.01466 25.9783 6.02924 25.9297 6.05664C25.881 6.0842 25.8394 6.1239 25.8105 6.17188L20.6328 15.1641L20.6318 15.166C20.6087 15.2053 20.5968 15.2503 20.5967 15.2959C20.5967 15.3186 20.5996 15.3415 20.6055 15.3633L20.6318 15.4268C20.6596 15.4741 20.7002 15.5132 20.748 15.54C20.7958 15.5668 20.8496 15.581 20.9043 15.5801H31.2705C31.3254 15.581 31.3799 15.5669 31.4277 15.54C31.4756 15.5132 31.5152 15.4741 31.543 15.4268L31.5439 15.4258C31.5674 15.3866 31.5798 15.3415 31.5801 15.2959C31.5803 15.2502 31.5689 15.2045 31.5459 15.165L31.5449 15.1641L26.3672 6.17188L26.3154 6.10645C26.2956 6.08716 26.2733 6.07038 26.249 6.05664C26.2003 6.02908 26.1448 6.01465 26.0889 6.01465Z" fill="#FFB71C" stroke="#FFB71C" stroke-width="0.387946"/>
<path d="M15.5137 20.7236C15.8163 20.7238 16.1063 20.8446 16.3203 21.0586C16.5343 21.2726 16.6552 21.5626 16.6553 21.8652V30.3955C16.6552 30.6981 16.5343 30.9881 16.3203 31.2021C16.1063 31.4161 15.8163 31.537 15.5137 31.5371H5.08789C4.78526 31.537 4.49525 31.4162 4.28125 31.2021C4.06725 30.9881 3.94639 30.6981 3.94629 30.3955V21.8652C3.94641 21.5626 4.06725 21.2726 4.28125 21.0586C4.49525 20.8446 4.78526 20.7238 5.08789 20.7236H15.5137ZM5.28223 30.2012H15.3193V22.0596H5.28223V30.2012Z" fill="#FFB71C" stroke="#FFB71C" stroke-width="0.387946"/>
<path d="M26.6631 19.2715C28.2329 19.351 29.7222 20.0093 30.8389 21.126C32.0301 22.3172 32.7004 23.9326 32.7021 25.6172C32.7021 26.8739 32.3291 28.1025 31.6309 29.1475C30.9327 30.1923 29.9403 31.0064 28.7793 31.4873C27.6184 31.9682 26.3408 32.0947 25.1084 31.8496C23.8758 31.6044 22.7431 30.999 21.8545 30.1104C20.9659 29.2217 20.3604 28.089 20.1152 26.8564C19.8702 25.624 19.9967 24.3465 20.4775 23.1855C20.9585 22.0246 21.7725 21.0322 22.8174 20.334C23.8623 19.6358 25.0909 19.2627 26.3477 19.2627L26.6631 19.2715ZM28.2686 20.9805C27.3516 20.6006 26.3416 20.5017 25.3682 20.6953C24.3949 20.889 23.5006 21.3666 22.7988 22.0684C22.0971 22.7701 21.6195 23.6644 21.4258 24.6377C21.2321 25.6112 21.3311 26.6211 21.7109 27.5381C22.0908 28.455 22.7344 29.2387 23.5596 29.79C24.3848 30.3414 25.3551 30.6357 26.3477 30.6357C27.6781 30.6342 28.9537 30.1049 29.8945 29.1641C30.8353 28.2233 31.3646 26.9477 31.3662 25.6172C31.3662 24.6247 31.0719 23.6544 30.5205 22.8291C29.9691 22.0039 29.1854 21.3603 28.2686 20.9805Z" fill="#FFB71C" stroke="#FFB71C" stroke-width="0.387946"/>
</svg>
