<svg width="36" height="35" viewBox="0 0 36 35" fill="none" xmlns="http://www.w3.org/2000/svg">
<path d="M31.125 29.5312C31.125 29.8213 31.0098 30.0995 30.8046 30.3046C30.5995 30.5098 30.3213 30.625 30.0312 30.625H5.96875C5.67867 30.625 5.40047 30.5098 5.19535 30.3046C4.99023 30.0995 4.875 29.8213 4.875 29.5312C4.875 29.2412 4.99023 28.963 5.19535 28.7579C5.40047 28.5527 5.67867 28.4375 5.96875 28.4375H30.0312C30.3213 28.4375 30.5995 28.5527 30.8046 28.7579C31.0098 28.963 31.125 29.2412 31.125 29.5312Z" fill="#FFB71C"/>
<path d="M9.20508 6.13766L9.50783 5.83334H25.6363L25.9391 6.13766C25.8473 7.70533 25.8014 9.52199 25.8014 11.5876H24.8381C24.3611 9.85397 24.0491 8.83959 23.9024 8.5445C23.829 8.32318 23.7464 8.12031 23.6546 7.93587C23.5262 7.80677 23.3611 7.72378 23.1592 7.68689C22.2051 7.50246 21.4069 7.41024 20.7647 7.41024C20.1225 7.41024 19.5721 7.45635 19.1134 7.54856C18.9666 11.0343 18.8932 16.5028 18.8932 23.9538C18.8932 24.2858 19.0583 24.5532 19.3886 24.7561C19.7372 24.9405 20.0858 25.0604 20.4345 25.1157C20.7831 25.1711 21.2601 25.2264 21.8657 25.2817V26.25H13.0583V25.2817C14.5262 25.1526 15.4253 24.9221 15.7555 24.5901C15.9207 24.4241 16.0033 24.212 16.0033 23.9538C16.0583 20.3758 16.0858 17.0284 16.0858 13.9115C16.0858 10.7761 16.0675 8.65516 16.0308 7.54856C15.5721 7.45635 15.0216 7.41024 14.3794 7.41024C13.7372 7.41024 12.939 7.50246 11.9849 7.68689C11.7831 7.72378 11.6179 7.80677 11.4895 7.93587C11.3977 8.12031 11.3152 8.32318 11.2418 8.5445C11.095 8.83959 10.7831 9.85397 10.306 11.5876H9.34269C9.34269 9.52199 9.29682 7.70533 9.20508 6.13766Z" fill="#FFB71C"/>
</svg>
