<svg width="36" height="35" viewBox="0 0 36 35" fill="none" xmlns="http://www.w3.org/2000/svg">
<path d="M5.9397 9.8008H10.4283C10.668 10.7371 11.2125 11.5669 11.976 12.1595C12.7394 12.7521 13.6784 13.0738 14.6448 13.0738C15.6113 13.0738 16.5503 12.7521 17.3137 12.1595C18.0772 11.5669 18.6217 10.7371 18.8614 9.8008H29.8788C30.1674 9.8008 30.4442 9.68616 30.6482 9.48209C30.8523 9.27803 30.9669 9.00125 30.9669 8.71266C30.9669 8.42407 30.8523 8.1473 30.6482 7.94323C30.4442 7.73916 30.1674 7.62452 29.8788 7.62452H18.8614C18.6217 6.68827 18.0772 5.85843 17.3137 5.26582C16.5503 4.67322 15.6113 4.35156 14.6448 4.35156C13.6784 4.35156 12.7394 4.67322 11.976 5.26582C11.2125 5.85843 10.668 6.68827 10.4283 7.62452H5.9397C5.65111 7.62452 5.37434 7.73916 5.17027 7.94323C4.96621 8.1473 4.85156 8.42407 4.85156 8.71266C4.85156 9.00125 4.96621 9.27803 5.17027 9.48209C5.37434 9.68616 5.65111 9.8008 5.9397 9.8008ZM14.6448 6.53638C15.0753 6.53638 15.496 6.66402 15.8539 6.90315C16.2118 7.14228 16.4907 7.48217 16.6555 7.87983C16.8202 8.2775 16.8633 8.71508 16.7793 9.13723C16.6953 9.55939 16.4881 9.94717 16.1837 10.2515C15.8793 10.5559 15.4916 10.7632 15.0694 10.8471C14.6472 10.9311 14.2097 10.888 13.812 10.7233C13.4143 10.5586 13.0745 10.2796 12.8353 9.92174C12.5962 9.56385 12.4685 9.14309 12.4685 8.71266C12.4685 8.13548 12.6978 7.58193 13.106 7.1738C13.5141 6.76567 14.0676 6.53638 14.6448 6.53638ZM29.8788 16.3296H27.5665C27.3268 15.3934 26.7823 14.5636 26.0188 13.971C25.2554 13.3783 24.3164 13.0567 23.35 13.0567C22.3835 13.0567 21.4445 13.3783 20.6811 13.971C19.9176 14.5636 19.3731 15.3934 19.1334 16.3296H5.9397C5.65111 16.3296 5.37434 16.4443 5.17027 16.6484C4.96621 16.8524 4.85156 17.1292 4.85156 17.4178C4.85156 17.7064 4.96621 17.9832 5.17027 18.1872C5.37434 18.3913 5.65111 18.5059 5.9397 18.5059H19.1334C19.3731 19.4422 19.9176 20.272 20.6811 20.8646C21.4445 21.4572 22.3835 21.7789 23.35 21.7789C24.3164 21.7789 25.2554 21.4572 26.0188 20.8646C26.7823 20.272 27.3268 19.4422 27.5665 18.5059H29.8788C30.1674 18.5059 30.4442 18.3913 30.6482 18.1872C30.8523 17.9832 30.9669 17.7064 30.9669 17.4178C30.9669 17.1292 30.8523 16.8524 30.6482 16.6484C30.4442 16.4443 30.1674 16.3296 29.8788 16.3296ZM23.35 19.5941C22.9195 19.5941 22.4988 19.4664 22.1409 19.2273C21.783 18.9882 21.5041 18.6483 21.3393 18.2506C21.1746 17.853 21.1315 17.4154 21.2155 16.9932C21.2995 16.5711 21.5067 16.1833 21.8111 15.8789C22.1155 15.5746 22.5032 15.3673 22.9254 15.2833C23.3475 15.1994 23.7851 15.2424 24.1828 15.4072C24.5805 15.5719 24.9203 15.8508 25.1595 16.2087C25.3986 16.5666 25.5262 16.9874 25.5262 17.4178C25.5262 17.995 25.297 18.5485 24.8888 18.9567C24.4807 19.3648 23.9271 19.5941 23.35 19.5941Z" fill="#FFB71C"/>
<path d="M5.96875 28.8094H10.4805C10.7214 29.7504 11.2687 30.5846 12.0361 31.1802C12.8035 31.7759 13.7473 32.0992 14.7187 32.0992C15.6902 32.0992 16.634 31.7759 17.4014 31.1802C18.1688 30.5846 18.7161 29.7504 18.957 28.8094H30.0312C30.3213 28.8094 30.5995 28.6941 30.8046 28.489C31.0098 28.2839 31.125 28.0057 31.125 27.7156C31.125 27.4255 31.0098 27.1473 30.8046 26.9422C30.5995 26.7371 30.3213 26.6219 30.0312 26.6219H18.957C18.7161 25.6808 18.1688 24.8467 17.4014 24.251C16.634 23.6553 15.6902 23.332 14.7187 23.332C13.7473 23.332 12.8035 23.6553 12.0361 24.251C11.2687 24.8467 10.7214 25.6808 10.4805 26.6219H5.96875C5.67867 26.6219 5.40047 26.7371 5.19535 26.9422C4.99023 27.1473 4.875 27.4255 4.875 27.7156C4.875 28.0057 4.99023 28.2839 5.19535 28.489C5.40047 28.6941 5.67867 28.8094 5.96875 28.8094ZM14.7187 25.5281C15.1514 25.5281 15.5743 25.6564 15.9341 25.8968C16.2938 26.1371 16.5742 26.4788 16.7397 26.8785C16.9053 27.2782 16.9486 27.718 16.8642 28.1424C16.7798 28.5667 16.5715 28.9565 16.2655 29.2624C15.9596 29.5683 15.5698 29.7767 15.1455 29.8611C14.7212 29.9455 14.2813 29.9022 13.8816 29.7366C13.4819 29.571 13.1403 29.2907 12.8999 28.9309C12.6595 28.5712 12.5312 28.1483 12.5312 27.7156C12.5312 27.1354 12.7617 26.579 13.172 26.1688C13.5822 25.7586 14.1386 25.5281 14.7187 25.5281Z" fill="#FFB71C"/>
</svg>
