<svg width="22" height="22" viewBox="0 0 22 22" fill="none" xmlns="http://www.w3.org/2000/svg">
<g clip-path="url(#clip0_2841_3484)">
<path d="M12.3764 10.8162L13.877 13.9693C13.9054 14.0289 13.9478 14.0807 14.0007 14.1203C14.0536 14.1598 14.1153 14.1859 14.1805 14.1962C14.2458 14.2066 14.3125 14.2009 14.3751 14.1797C14.4376 14.1584 14.494 14.1223 14.5395 14.0744L16.9412 11.539C17.0054 11.4714 17.0909 11.4278 17.1833 11.4156L20.6463 10.9627C20.7117 10.954 20.7741 10.9296 20.828 10.8916C20.8819 10.8535 20.9257 10.8028 20.9556 10.744C20.9856 10.6852 21.0008 10.62 21 10.5541C20.9991 10.4881 20.9822 10.4233 20.9508 10.3653L19.2813 7.2976C19.2369 7.21556 19.2221 7.12076 19.2393 7.02908L19.8787 3.59592C19.8908 3.53094 19.887 3.46397 19.8674 3.40083C19.8479 3.33768 19.8132 3.28025 19.7665 3.2335C19.7197 3.18676 19.6623 3.15211 19.5991 3.13255C19.536 3.11299 19.469 3.10912 19.404 3.12126L15.9709 3.7607C15.8792 3.77788 15.7844 3.76303 15.7024 3.71865L12.6347 2.0492C12.5767 2.01772 12.5118 2.00085 12.4458 2.00003C12.3798 1.99922 12.3145 2.01449 12.2557 2.04453C12.1969 2.07457 12.1463 2.11847 12.1082 2.17245C12.0702 2.22643 12.0458 2.28885 12.0373 2.35434L11.5844 5.81666C11.5722 5.90911 11.5286 5.99457 11.4609 6.05873L8.92559 8.46052C8.87768 8.50597 8.84156 8.5624 8.82034 8.62493C8.79912 8.68746 8.79343 8.75421 8.80378 8.81943C8.81413 8.88465 8.84019 8.94637 8.87972 8.99926C8.91926 9.05215 8.97107 9.09462 9.03069 9.12301L12.1838 10.6236C12.2682 10.6638 12.3362 10.7318 12.3764 10.8162ZM11.8359 12.1229L10.8771 11.1641L8 14.0405L8.95949 15L11.8359 12.1229Z" fill="white"/>
<path d="M9.5 4.5H2.5V19.5H17.5V14.5" stroke="white"/>
</g>
<defs>
<clipPath id="clip0_2841_3484">
<rect width="22" height="22" fill="white" transform="matrix(-1 0 0 1 22 0)"/>
</clipPath>
</defs>
</svg>
