<svg width="28" height="28" viewBox="0 0 28 28" fill="none" xmlns="http://www.w3.org/2000/svg">
<g clip-path="url(#clip0_5743_4566)">
<path d="M22.751 3.49805H5.25098C4.78685 3.49805 4.34173 3.68242 4.01354 4.01061C3.68535 4.3388 3.50098 4.78392 3.50098 5.24805V22.748C3.50098 23.2122 3.68535 23.6573 4.01354 23.9855C4.34173 24.3137 4.78685 24.498 5.25098 24.498H22.751C23.2151 24.498 23.6602 24.3137 23.9884 23.9855C24.3166 23.6573 24.501 23.2122 24.501 22.748V5.24805C24.501 4.78392 24.3166 4.3388 23.9884 4.01061C23.6602 3.68242 23.2151 3.49805 22.751 3.49805ZM19.87 18.629C19.9513 18.7103 20.0158 18.8068 20.0598 18.913C20.1038 19.0192 20.1265 19.1331 20.1265 19.248C20.1265 19.363 20.1038 19.4769 20.0598 19.5831C20.0158 19.6893 19.9513 19.7858 19.87 19.8671C19.7887 19.9484 19.6922 20.0129 19.586 20.0569C19.4798 20.1009 19.3659 20.1235 19.251 20.1235C19.136 20.1235 19.0222 20.1009 18.9159 20.0569C18.8097 20.0129 18.7132 19.9484 18.6319 19.8671L14.001 15.2351L9.37004 19.8671C9.20585 20.0313 8.98317 20.1235 8.75098 20.1235C8.51878 20.1235 8.2961 20.0313 8.13191 19.8671C7.96773 19.7029 7.87549 19.4802 7.87549 19.248C7.87549 19.0159 7.96773 18.7932 8.13191 18.629L12.7639 13.998L8.13191 9.36711C7.96773 9.20292 7.87549 8.98024 7.87549 8.74805C7.87549 8.51585 7.96773 8.29317 8.13191 8.12898C8.2961 7.9648 8.51878 7.87256 8.75098 7.87256C8.98317 7.87256 9.20585 7.9648 9.37004 8.12898L14.001 12.761L18.6319 8.12898C18.7961 7.9648 19.0188 7.87256 19.251 7.87256C19.4832 7.87256 19.7059 7.9648 19.87 8.12898C20.0342 8.29317 20.1265 8.51585 20.1265 8.74805C20.1265 8.98024 20.0342 9.20292 19.87 9.36711L15.238 13.998L19.87 18.629Z" fill="#FF453A"/>
</g>
<defs>
<clipPath id="clip0_5743_4566">
<rect width="28" height="28" fill="white"/>
</clipPath>
</defs>
</svg>
