<svg width="62" height="62" viewBox="0 0 62 62" fill="none" xmlns="http://www.w3.org/2000/svg">
<g clip-path="url(#clip0_5737_4361)">
<path d="M56.1875 50.375C56.1875 50.8889 55.9834 51.3817 55.62 51.745C55.2567 52.1084 54.7639 52.3125 54.25 52.3125H7.75C7.23614 52.3125 6.74333 52.1084 6.37998 51.745C6.01663 51.3817 5.8125 50.8889 5.8125 50.375C5.8125 49.8611 6.01663 49.3683 6.37998 49.005C6.74333 48.6416 7.23614 48.4375 7.75 48.4375H54.25C54.7639 48.4375 55.2567 48.6416 55.62 49.005C55.9834 49.3683 56.1875 49.8611 56.1875 50.375ZM56.1875 13.5625V40.6875C56.1875 41.7152 55.7792 42.7008 55.0525 43.4275C54.3258 44.1542 53.3402 44.5625 52.3125 44.5625H9.6875C8.65979 44.5625 7.67416 44.1542 6.94746 43.4275C6.22076 42.7008 5.8125 41.7152 5.8125 40.6875V13.5625C5.8125 12.5348 6.22076 11.5492 6.94746 10.8225C7.67416 10.0958 8.65979 9.6875 9.6875 9.6875H52.3125C53.3402 9.6875 54.3258 10.0958 55.0525 10.8225C55.7792 11.5492 56.1875 12.5348 56.1875 13.5625ZM39.7188 27.125C39.7187 26.8137 39.6436 26.507 39.4998 26.2308C39.356 25.9547 39.1479 25.7173 38.8929 25.5387L29.2054 18.7574C28.9151 18.5541 28.5746 18.4342 28.2209 18.411C27.8672 18.3877 27.514 18.4619 27.1995 18.6255C26.8851 18.7891 26.6216 19.0358 26.4376 19.3387C26.2537 19.6417 26.1563 19.9893 26.1562 20.3438V33.9062C26.1563 34.2607 26.2537 34.6083 26.4376 34.9113C26.6216 35.2142 26.8851 35.4609 27.1995 35.6245C27.514 35.7881 27.8672 35.8623 28.2209 35.839C28.5746 35.8158 28.9151 35.6959 29.2054 35.4926L38.8929 28.7113C39.1479 28.5327 39.356 28.2953 39.4998 28.0192C39.6436 27.743 39.7187 27.4363 39.7188 27.125Z" fill="#D3D3D3"/>
</g>
<defs>
<clipPath id="clip0_5737_4361">
<rect width="62" height="62" fill="white"/>
</clipPath>
</defs>
</svg>
