<svg width="21" height="20" viewBox="0 0 21 20" fill="none" xmlns="http://www.w3.org/2000/svg">
<path d="M19.6072 4.37491V8.12491C19.6072 8.29067 19.5414 8.44964 19.4242 8.56685C19.307 8.68406 19.148 8.74991 18.9822 8.74991H15.2322C15.0665 8.74991 14.9075 8.68406 14.7903 8.56685C14.6731 8.44964 14.6072 8.29067 14.6072 8.12491C14.6072 7.95915 14.6731 7.80018 14.7903 7.68297C14.9075 7.56576 15.0665 7.49991 15.2322 7.49991H17.3728L15.2955 5.59678L15.276 5.57803C14.4073 4.70967 13.302 4.11651 12.0981 3.87268C10.8943 3.62884 9.64528 3.74513 8.50714 4.20702C7.369 4.6689 6.39219 5.45591 5.69874 6.46972C5.00528 7.48353 4.62592 8.6792 4.60806 9.90736C4.59019 11.1355 4.9346 12.3417 5.59827 13.3753C6.26193 14.4088 7.21543 15.2239 8.33965 15.7187C9.46387 16.2135 10.709 16.3661 11.9194 16.1574C13.1298 15.9487 14.2519 15.3879 15.1455 14.5452C15.266 14.4313 15.4268 14.3698 15.5926 14.3744C15.7584 14.3791 15.9155 14.4493 16.0295 14.5698C16.1434 14.6903 16.2049 14.8511 16.2003 15.0169C16.1956 15.1827 16.1254 15.3399 16.0049 15.4538C14.6154 16.7716 12.7722 17.5042 10.8572 17.4999H10.7541C9.52577 17.4831 8.32038 17.1648 7.24386 16.573C6.16735 15.9812 5.25268 15.1341 4.58024 14.106C3.9078 13.078 3.49818 11.9005 3.38738 10.6771C3.27658 9.45362 3.468 8.2217 3.94481 7.08956C4.42162 5.95743 5.16922 4.95974 6.1219 4.1842C7.07459 3.40866 8.20319 2.879 9.40851 2.64178C10.6138 2.40456 11.859 2.46704 13.0345 2.82373C14.21 3.18041 15.2799 3.82039 16.1502 4.68741L18.3572 6.70303V4.37491C18.3572 4.20915 18.4231 4.05018 18.5403 3.93297C18.6575 3.81576 18.8165 3.74991 18.9822 3.74991C19.148 3.74991 19.307 3.81576 19.4242 3.93297C19.5414 4.05018 19.6072 4.20915 19.6072 4.37491Z" fill="white"/>
</svg>
