<svg width="54" height="54" viewBox="0 0 54 54" fill="none" xmlns="http://www.w3.org/2000/svg">
<g opacity="0.7" clip-path="url(#clip0_2890_476)">
<path d="M47.2502 33.75V40.5H54.0002V45H47.2502V51.75H42.7502V45H36.0002V40.5H42.7502V33.75H47.2502ZM47.2682 6.75C48.5012 6.75 49.5002 7.75125 49.5002 8.98425V30.0195C48.0549 29.509 46.5331 29.2487 45.0002 29.25V11.25H9.00024L9.00249 42.75L29.9095 21.8407C30.2964 21.4526 30.8118 21.2191 31.3587 21.1843C31.9057 21.1495 32.4465 21.3158 32.8795 21.6517L33.0887 21.843L41.0672 29.8305C39.3227 30.3621 37.7039 31.2415 36.3084 32.4157C34.9129 33.5898 33.7696 35.0344 32.9476 36.6624C32.1255 38.2904 31.6416 40.0679 31.5251 41.888C31.4086 43.708 31.6619 45.5328 32.2697 47.2522L6.73224 47.25C6.14007 47.2494 5.57236 47.0137 5.15385 46.5948C4.73533 46.1759 4.50024 45.6079 4.50024 45.0157V8.98425C4.50436 8.39335 4.74077 7.82779 5.1584 7.40974C5.57603 6.99169 6.14135 6.75471 6.73224 6.75H47.2682ZM18.0002 15.75C19.1937 15.75 20.3383 16.2241 21.1822 17.068C22.0261 17.9119 22.5002 19.0565 22.5002 20.25C22.5002 21.4435 22.0261 22.5881 21.1822 23.432C20.3383 24.2759 19.1937 24.75 18.0002 24.75C16.8068 24.75 15.6622 24.2759 14.8183 23.432C13.9744 22.5881 13.5002 21.4435 13.5002 20.25C13.5002 19.0565 13.9744 17.9119 14.8183 17.068C15.6622 16.2241 16.8068 15.75 18.0002 15.75Z" fill="#DCDCDC"/>
</g>
<defs>
<clipPath id="clip0_2890_476">
<rect width="54" height="54" fill="white"/>
</clipPath>
</defs>
</svg>
