<svg width="103" height="103" viewBox="0 0 103 103" fill="none" xmlns="http://www.w3.org/2000/svg">
<rect x="49.3145" width="4.28829" height="25.7297" rx="2.14414" fill="#FFE7B3"/>
<rect y="53.6035" width="4.28829" height="25.7297" rx="2.14414" transform="rotate(-90 0 53.6035)" fill="#595959"/>
<rect x="27.5859" y="97.0947" width="4.28829" height="25.7297" rx="2.14414" transform="rotate(-150 27.5859 97.0947)" fill="#3A3A3A"/>
<rect x="79.0469" y="94.9512" width="4.28829" height="25.7297" rx="2.14414" transform="rotate(150 79.0469 94.9512)" fill="#FFBE33"/>
<rect x="97.0977" y="75.3311" width="4.28829" height="25.7297" rx="2.14414" transform="rotate(120 97.0977 75.3311)" fill="#FFC64D"/>
<rect x="94.9531" y="23.873" width="4.28829" height="25.7297" rx="2.14414" transform="rotate(60 94.9531 23.873)" fill="#FFD780"/>
<rect x="53.6035" y="102.919" width="4.28829" height="25.7297" rx="2.14414" transform="rotate(180 53.6035 102.919)" fill="#FFB71C"/>
<rect x="102.918" y="49.3154" width="4.28829" height="25.7297" rx="2.14414" transform="rotate(90 102.918 49.3154)" fill="#FFCE66"/>
<rect x="75.332" y="5.82422" width="4.28829" height="25.7297" rx="2.14414" transform="rotate(30 75.332 5.82422)" fill="#FFDF99"/>
<rect x="23.873" y="7.96777" width="4.28829" height="25.7297" rx="2.14414" transform="rotate(-30 23.873 7.96777)" fill="#7D7D7D"/>
<rect x="5.82227" y="27.5859" width="4.28829" height="25.7297" rx="2.14414" transform="rotate(-60 5.82227 27.5859)" fill="#727272"/>
<rect x="7.9668" y="79.0469" width="4.28829" height="25.7297" rx="2.14414" transform="rotate(-120 7.9668 79.0469)" fill="#454545"/>
</svg>
