<svg width="196" height="28" viewBox="0 0 196 28" fill="none" xmlns="http://www.w3.org/2000/svg">
<g clip-path="url(#clip0_2866_25701)">
<path d="M104.478 9.83496H109.364C109.364 6.40518 110.791 4.68933 113.037 4.68933C115.284 4.68933 116.676 6.29974 116.676 8.22456C116.676 10.1494 115.57 11.3744 114.821 12.1451C114.108 12.9158 106.582 20.7551 105.974 21.3858C105.369 22.0165 104.476 22.7853 104.476 24.4667C104.476 26.148 105.474 27.6511 107.508 27.6511H119.386C120.456 27.6511 122.133 26.8804 122.133 24.6066V22.8908H111.324C111.324 22.8908 119.243 14.5953 120.171 13.6501C121.955 11.8997 122.133 9.86947 122.133 8.22456C122.133 3.35883 118.459 0.174438 113.215 0.174438C107.971 0.174438 104.476 3.14986 104.476 9.83496" fill="#FFB81C"/>
<path d="M122.097 17.3253L133.869 1.43596C134.44 0.665265 135.333 0.176392 136.366 0.176392C138.078 0.176392 139.434 1.5414 139.434 3.18632V17.3962H144V18.9357C144 20.966 142.466 21.6657 141.503 21.6657H139.434V25.3409C139.434 26.3551 138.648 28 136.402 28H134.69V21.6657H124.309C122.775 21.6657 121.527 20.4407 121.527 18.9357C121.562 18.3414 121.742 17.7816 122.097 17.3253ZM127.199 17.3943H134.69V7.27944L127.199 17.3943Z" fill="#FFB81C"/>
<path d="M99.8393 27.4402C99.5189 27.5457 97.7702 28 95.916 28C91.7777 28 89.6031 26.2497 89.6031 22.5745V0.385376H91.9223C94.3471 0.385376 95.1325 1.75039 95.1325 3.67521V5.35463H99.8413V6.64871C99.8413 8.50451 98.5224 9.5532 96.5959 9.5532H95.1325V21.5929C95.1325 22.9234 95.5956 23.8686 97.4869 23.8686C98.6279 23.8686 99.6635 23.5542 99.8413 23.4832C99.8413 23.974 99.8413 27.4383 99.8413 27.4383M85.5001 8.9608C86.6763 8.9608 87.8896 9.31163 88.0322 9.34614V5.35655C87.8544 5.32204 85.5704 4.83125 83.431 4.83125C79.7929 4.83125 77.2236 6.30171 77.2236 10.1859V27.4402H82.753V11.271C82.753 9.83502 83.6439 8.9608 85.5001 8.9608ZM53.8615 11.131C53.8615 8.92629 52.5779 4.90027 45.2295 4.90027C41.4488 4.90027 39.9502 5.87993 39.4148 6.23077C38.8443 5.91636 37.0956 4.90027 33.565 4.90027C26.752 4.90027 24.933 8.22461 24.933 10.9911V27.5112H30.4975V11.34C30.4975 10.3948 31.0328 8.9953 33.565 8.9953C35.5619 8.9953 36.6326 9.97497 36.6326 11.34V27.5092H42.1971V11.34C42.1971 9.97497 43.2678 8.9953 45.2646 8.9953C47.4412 8.9953 48.3673 10.0804 48.3673 11.34V23.7995C48.3673 26.2497 49.8308 27.6147 52.1128 27.6147H53.9319V11.131H53.8596H53.8615ZM65.6334 4.86576C72.5891 4.86576 75.0861 8.08657 75.0861 12.3906V19.3901C75.0861 24.2903 71.8759 28 65.2407 28C58.6054 28 55.3953 25.0591 55.3953 21.1059C55.3953 17.9561 57.5719 15.8913 62.3158 14.5953C62.9938 14.4208 65.313 13.7211 66.3466 13.4412C68.7361 12.7414 69.5216 12.2161 69.5216 11.2019C69.5216 10.1168 68.2027 8.96271 65.4908 8.96271C62.2455 8.96271 61.2451 10.922 61.2099 12.3235H56.1807C56.1807 7.98305 58.8204 4.86768 65.6334 4.86768V4.86576ZM64.8128 23.8705C66.9523 23.8705 69.5567 22.54 69.5567 19.1811V16.522C69.5567 16.522 65.3482 17.7126 64.17 18.0615C62.0657 18.6923 61.0673 19.7409 61.0673 21.1059C61.0321 22.5055 62.2083 23.8705 64.8128 23.8705Z" fill="#63666A"/>
<path d="M11.0216 28C3.35279 28 0 23.3797 0 17.5343V11.2345C0 3.14988 5.49225 0 11.9497 0C19.7611 0 23.1862 4.16597 23.1862 8.33002C23.1862 14.4208 16.8362 15.8894 14.054 16.6946C13.2334 16.94 10.2733 17.7797 9.59531 17.9886C6.99084 18.7229 6.24252 19.5645 6.24252 20.5078C6.24252 22.1182 7.66882 23.5177 11.0216 23.5177C13.9465 23.5177 16.086 22.538 16.4435 19.5626H22.5434C21.9006 24.252 19.0128 27.9981 11.0216 27.9981M11.6996 4.51489C8.31164 4.51489 6.09989 6.75413 6.09989 10.5347V14.5243C6.09989 14.5243 10.7012 13.1938 12.5925 12.634C14.1986 12.1432 17.0512 11.1636 17.0512 8.67895C17.0863 6.50873 15.2673 4.51298 11.7016 4.51298L11.6996 4.51489Z" fill="#FFB81C"/>
</g>
<g clip-path="url(#clip1_2866_25701)">
<path d="M150 27.7016V10.2882H153.411V27.7016H150Z" fill="#19289B"/>
<path d="M170.632 18.4185V26.5695C169.748 27.0532 168.803 27.4031 167.786 27.6398C166.768 27.8765 165.648 27.9897 164.426 27.9897C161.723 27.9897 159.627 27.2281 158.158 25.705C156.679 24.1818 155.939 22.0206 155.939 19.2316C155.939 16.4425 156.679 14.0858 158.168 12.4494C159.648 10.813 161.713 10 164.344 10C166.285 10 167.837 10.4837 168.967 11.4511C170.108 12.4185 170.673 13.7153 170.673 15.331V15.6501H167.447C167.405 14.5798 167.097 13.7667 166.532 13.2007C165.967 12.6449 165.166 12.3671 164.138 12.3671C162.679 12.3671 161.539 12.9743 160.696 14.1784C159.853 15.3825 159.432 17.0292 159.432 19.1184C159.432 21.2075 159.874 22.7204 160.758 23.7702C161.641 24.8302 162.946 25.3551 164.672 25.3551C165.124 25.3551 165.566 25.3242 165.998 25.2624C166.44 25.2007 166.861 25.1184 167.282 24.9949V21.1973H164.241V18.4185H170.621H170.632Z" fill="#19289B"/>
<path d="M182.972 23.8937C182.879 25.1801 182.407 26.1784 181.564 26.8885C180.721 27.6089 179.591 27.9589 178.184 27.9589C176.54 27.9589 175.266 27.4134 174.351 26.3225C173.437 25.2316 172.985 23.6981 172.985 21.7427C172.985 19.6844 173.447 18.0892 174.382 16.9571C175.317 15.8251 176.632 15.259 178.348 15.259C179.93 15.259 181.153 15.8045 182.026 16.9057C182.889 18.0069 183.321 19.5609 183.321 21.5781C183.321 21.7942 183.321 21.9692 183.321 22.0721C183.321 22.1853 183.321 22.2779 183.3 22.3705H176.108C176.118 23.4717 176.303 24.2745 176.642 24.8199C176.981 25.3551 177.495 25.6227 178.173 25.6227C178.708 25.6227 179.139 25.4786 179.447 25.2007C179.766 24.9125 179.982 24.4803 180.105 23.904H182.982L182.972 23.8937ZM176.19 20.127H180.013C180.002 19.2419 179.838 18.5832 179.519 18.151C179.201 17.7187 178.738 17.4923 178.122 17.4923C177.567 17.4923 177.115 17.729 176.776 18.1921C176.437 18.6553 176.242 19.3036 176.19 20.127Z" fill="#19289B"/>
<path d="M185.715 27.7015V17.8834C185.715 17.5334 185.715 17.1732 185.684 16.7924C185.653 16.4117 185.643 16 185.602 15.5575H188.695L188.756 17.3791C189.178 16.6484 189.671 16.1132 190.246 15.7736C190.822 15.434 191.52 15.2693 192.352 15.2693C193.585 15.2693 194.5 15.6501 195.096 16.4117C195.692 17.1732 195.99 18.3259 195.99 19.8902V27.7118H192.794V20.3842C192.794 19.4785 192.65 18.8302 192.363 18.4391C192.075 18.048 191.613 17.8525 190.965 17.8525C190.318 17.8525 189.845 18.0686 189.465 18.5111C189.085 18.9434 188.9 19.53 188.9 20.2504V27.7221H185.694L185.715 27.7015Z" fill="#19289B"/>
</g>
<defs>
<clipPath id="clip0_2866_25701">
<rect width="144" height="28" fill="white"/>
</clipPath>
<clipPath id="clip1_2866_25701">
<rect width="46" height="18" fill="white" transform="translate(150 10)"/>
</clipPath>
</defs>
</svg>
